<svg width="42" height="54" viewBox="0 0 42 54" fill="none" xmlns="http://www.w3.org/2000/svg">
<path fill-rule="evenodd" clip-rule="evenodd" d="M0 48C0 50.8997 2.35025 53.25 5.25 53.25H36.75C39.6497 53.25 42 50.8997 42 48C42 43.9155 42 37.2375 42 33.4208C42 30.8833 40.1853 28.7098 37.6898 28.2565C33.9903 27.5828 27.6115 26.4225 24.003 25.768C22.0168 25.4057 19.9832 25.4057 17.997 25.768C14.3885 26.4225 8.00975 27.5828 4.31025 28.2565C1.81475 28.7098 0 30.8833 0 33.4208V48ZM25.039 29.513L27.6657 39.5003C28.0105 40.811 27.5485 42.2023 26.488 43.0493C25.592 43.7633 24.1798 44.8903 23.1998 45.6743C21.9135 46.6998 20.0865 46.6998 18.8002 45.6743C17.8202 44.8903 16.408 43.7633 15.512 43.0493C14.4515 42.2023 13.9895 40.811 14.3343 39.5003L16.961 29.513L4.93675 31.6987C4.1055 31.851 3.5 32.5755 3.5 33.4208V48C3.5 48.966 4.284 49.75 5.25 49.75C12.572 49.75 29.428 49.75 36.75 49.75C37.716 49.75 38.5 48.966 38.5 48C38.5 43.9155 38.5 37.2375 38.5 33.4208C38.5 32.5755 37.8945 31.851 37.0633 31.6987L25.039 29.513ZM21.2853 29.0003C21.0945 28.995 20.9055 28.995 20.7147 29.0003L17.7328 40.3438L20.9842 42.9372C20.993 42.946 21.007 42.946 21.0158 42.9372L24.2672 40.3438L21.2853 29.0003ZM21 0.75C14.7227 0.75 9.625 5.84775 9.625 12.125C9.625 18.4023 14.7227 23.5 21 23.5C27.2773 23.5 32.375 18.4023 32.375 12.125C32.375 5.84775 27.2773 0.75 21 0.75ZM21 4.25C25.347 4.25 28.875 7.778 28.875 12.125C28.875 16.472 25.347 20 21 20C16.653 20 13.125 16.472 13.125 12.125C13.125 7.778 16.653 4.25 21 4.25Z" fill="#4D44B5"/>
</svg>
