<svg width="42" height="48" viewBox="0 0 42 48" fill="none" xmlns="http://www.w3.org/2000/svg">
<path d="M39.6669 14.6667L25.6669 2.39335C24.3835 1.24545 22.7221 0.61084 21.0002 0.61084C19.2784 0.61084 17.6169 1.24545 16.3336 2.39335L2.33355 14.6667C1.59241 15.3295 1.00099 16.1426 0.598656 17.0519C0.196323 17.9612 -0.00768264 18.9457 0.000221186 19.94V40.3333C0.000221186 42.1899 0.737719 43.9703 2.05047 45.2831C3.36323 46.5958 5.14371 47.3333 7.00022 47.3333H35.0002C36.8567 47.3333 38.6372 46.5958 39.95 45.2831C41.2627 43.9703 42.0002 42.1899 42.0002 40.3333V19.9167C42.0048 18.9263 41.7992 17.9463 41.397 17.0413C40.9948 16.1363 40.4051 15.3269 39.6669 14.6667ZM25.6669 42.6667H16.3336V31C16.3336 30.3812 16.5794 29.7877 17.017 29.3501C17.4546 28.9125 18.048 28.6667 18.6669 28.6667H23.3336C23.9524 28.6667 24.5459 28.9125 24.9835 29.3501C25.4211 29.7877 25.6669 30.3812 25.6669 31V42.6667ZM37.3336 40.3333C37.3336 40.9522 37.0877 41.5457 36.6501 41.9833C36.2126 42.4208 35.6191 42.6667 35.0002 42.6667H30.3336V31C30.3336 29.1435 29.5961 27.363 28.2833 26.0503C26.9705 24.7375 25.1901 24 23.3336 24H18.6669C16.8104 24 15.0299 24.7375 13.7171 26.0503C12.4044 27.363 11.6669 29.1435 11.6669 31V42.6667H7.00022C6.38138 42.6667 5.78789 42.4208 5.35031 41.9833C4.91272 41.5457 4.66689 40.9522 4.66689 40.3333V19.9167C4.66731 19.5854 4.73827 19.258 4.87506 18.9562C5.01185 18.6545 5.21133 18.3853 5.46022 18.1667L19.4602 5.91668C19.886 5.5426 20.4334 5.3363 21.0002 5.3363C21.567 5.3363 22.1144 5.5426 22.5402 5.91668L36.5402 18.1667C36.7891 18.3853 36.9886 18.6545 37.1254 18.9562C37.2622 19.258 37.3331 19.5854 37.3336 19.9167V40.3333Z" fill="#4D44B5"/>
</svg>
